<?xml version="1.0" encoding="UTF-8"?>
<svg xmlns="http://www.w3.org/2000/svg" xmlns:xlink="http://www.w3.org/1999/xlink" width="16"
  height="16px" viewBox="0 0 16 16" version="1.1">
  <defs>
    <filter id="alpha" filterUnits="objectBoundingBox" x="0%" y="0%" width="100%" height="100%">
      <feColorMatrix type="matrix" in="SourceGraphic"
        values="0 0 0 0 1 0 0 0 0 1 0 0 0 0 1 0 0 0 1 0"/>
    </filter>
    <mask id="mask0">
      <g filter="url(#alpha)">
        <rect x="0" y="0" width="16" height="16"
          style="fill:rgb(0%,0%,0%);fill-opacity:0.901961;stroke:none;"/>
      </g>
    </mask>
    <clipPath id="clip1">
      <rect x="0" y="0" width="16" height="16"/>
    </clipPath>
    <g id="surface5" clip-path="url(#clip1)">
      <path
        style=" stroke:none;fill-rule:evenodd;fill:rgb(12.156863%,13.72549%,14.901961%);fill-opacity:1;"
        d="M 13.933594 11.792969 C 14.613281 11.128906 15.09375 10.34375 15.375 9.441406 C 15.539062 8.597656 15.65625 7.753906 15.726562 6.902344 C 15.765625 6.410156 15.675781 5.941406 15.453125 5.496094 C 14.605469 4.066406 13.578125 2.765625 12.371094 1.59375 C 12.019531 1.308594 11.628906 1.082031 11.199219 0.910156 C 10.222656 0.738281 9.257812 0.511719 8.3125 0.226562 C 6.882812 0.175781 5.503906 0.402344 4.175781 0.910156 C 3.355469 1.175781 2.695312 1.640625 2.183594 2.3125 C 0.6875 4.851562 0.0507812 7.582031 0.273438 10.503906 C 0.285156 10.558594 0.269531 10.609375 0.234375 10.652344 C -0.0117188 9.558594 -0.0234375 8.460938 0.195312 7.355469 C 0.195312 7.25 0.167969 7.160156 0.117188 7.089844 C 0.105469 7.015625 0.128906 6.964844 0.195312 6.9375 C 0.21875 7.03125 0.257812 7.03125 0.3125 6.9375 C 0.59375 5.417969 1.085938 3.976562 1.796875 2.617188 C 2.089844 2.179688 2.4375 1.789062 2.847656 1.441406 C 3.230469 1.242188 3.59375 1.027344 3.941406 0.796875 C 4.234375 0.640625 4.546875 0.515625 4.878906 0.417969 C 4.925781 0.464844 4.988281 0.492188 5.074219 0.492188 C 6.277344 0.078125 7.515625 -0.0390625 8.78125 0.152344 C 9.886719 0.359375 10.953125 0.6875 11.980469 1.136719 C 13.339844 2.332031 14.496094 3.683594 15.453125 5.195312 C 15.941406 6.351562 16.019531 7.539062 15.6875 8.757812 C 15.550781 9.691406 15.1875 10.523438 14.59375 11.261719 C 14.40625 11.484375 14.183594 11.660156 13.933594 11.792969 Z M 13.933594 11.792969 "/>
    </g>
    <mask id="mask1">
      <g filter="url(#alpha)">
        <rect x="0" y="0" width="16" height="16"
          style="fill:rgb(0%,0%,0%);fill-opacity:0.0627451;stroke:none;"/>
      </g>
    </mask>
    <clipPath id="clip2">
      <rect x="0" y="0" width="16" height="16"/>
    </clipPath>
    <g id="surface8" clip-path="url(#clip2)">
      <path
        style=" stroke:none;fill-rule:evenodd;fill:rgb(64.313725%,67.058824%,70.588235%);fill-opacity:1;"
        d="M 3.941406 0.796875 C 3.59375 1.027344 3.230469 1.242188 2.847656 1.441406 C 2.4375 1.789062 2.089844 2.179688 1.796875 2.617188 C 1.085938 3.976562 0.59375 5.417969 0.3125 6.9375 C 0.257812 7.03125 0.21875 7.03125 0.195312 6.9375 C 0.472656 5.335938 1.003906 3.820312 1.796875 2.386719 C 2.324219 1.605469 3.039062 1.078125 3.941406 0.796875 Z M 3.941406 0.796875 "/>
    </g>
    <mask id="mask2">
      <g filter="url(#alpha)">
        <rect x="0" y="0" width="16" height="16"
          style="fill:rgb(0%,0%,0%);fill-opacity:0.0431373;stroke:none;"/>
      </g>
    </mask>
    <clipPath id="clip3">
      <rect x="0" y="0" width="16" height="16"/>
    </clipPath>
    <g id="surface11" clip-path="url(#clip3)">
      <path
        style=" stroke:none;fill-rule:evenodd;fill:rgb(62.352941%,68.235294%,72.54902%);fill-opacity:1;"
        d="M 6.828125 -0.0390625 C 7.347656 -0.0390625 7.871094 -0.0390625 8.390625 -0.0390625 C 9.5 0.15625 10.59375 0.445312 11.667969 0.835938 C 12.402344 1.320312 13.066406 1.890625 13.660156 2.539062 C 14.367188 3.386719 15.015625 4.269531 15.609375 5.195312 C 15.722656 5.484375 15.839844 5.761719 15.960938 6.027344 C 15.960938 6.785156 15.960938 7.546875 15.960938 8.304688 C 15.808594 9.339844 15.429688 10.300781 14.828125 11.183594 C 13.242188 12.90625 11.40625 14.308594 9.328125 15.394531 C 8.753906 15.609375 8.183594 15.796875 7.609375 15.960938 C 6.671875 15.960938 5.738281 15.960938 4.800781 15.960938 C 3.496094 15.703125 2.390625 15.09375 1.484375 14.140625 C 0.839844 12.949219 0.335938 11.710938 -0.0390625 10.425781 C -0.0390625 9.515625 -0.0390625 8.605469 -0.0390625 7.695312 C 0.0429688 7.511719 0.09375 7.308594 0.117188 7.089844 C 0.167969 7.160156 0.195312 7.25 0.195312 7.355469 C -0.0234375 8.460938 -0.0117188 9.558594 0.234375 10.652344 C 0.269531 10.609375 0.285156 10.558594 0.273438 10.503906 C 0.34375 10.554688 0.371094 10.632812 0.351562 10.730469 C 0.300781 10.761719 0.277344 10.8125 0.273438 10.882812 C 0.59375 12.0625 1.078125 13.171875 1.71875 14.21875 C 2.625 15.132812 3.730469 15.675781 5.035156 15.847656 C 6.464844 16.027344 7.84375 15.851562 9.171875 15.316406 C 10.976562 14.410156 12.5625 13.234375 13.933594 11.792969 C 14.183594 11.660156 14.40625 11.484375 14.59375 11.261719 C 15.1875 10.523438 15.550781 9.691406 15.6875 8.757812 C 16.019531 7.539062 15.941406 6.351562 15.453125 5.195312 C 14.496094 3.683594 13.339844 2.332031 11.980469 1.136719 C 10.953125 0.6875 9.886719 0.359375 8.78125 0.152344 C 7.515625 -0.0390625 6.277344 0.078125 5.074219 0.492188 C 4.988281 0.492188 4.925781 0.464844 4.878906 0.417969 C 5.535156 0.261719 6.1875 0.109375 6.828125 -0.0390625 Z M 6.828125 -0.0390625 "/>
    </g>
    <mask id="mask3">
      <g filter="url(#alpha)">
        <rect x="0" y="0" width="16" height="16"
          style="fill:rgb(0%,0%,0%);fill-opacity:0.788235;stroke:none;"/>
      </g>
    </mask>
    <clipPath id="clip4">
      <rect x="0" y="0" width="16" height="16"/>
    </clipPath>
    <g id="surface14" clip-path="url(#clip4)">
      <path
        style=" stroke:none;fill-rule:evenodd;fill:rgb(13.72549%,16.078431%,18.039216%);fill-opacity:1;"
        d="M 0.351562 10.730469 C 0.558594 11.507812 0.832031 12.265625 1.171875 13.003906 C 1.378906 13.511719 1.664062 13.964844 2.027344 14.371094 C 2.492188 14.753906 3 15.070312 3.550781 15.316406 C 6.226562 16.195312 8.699219 15.816406 10.964844 14.179688 C 11.992188 13.421875 12.980469 12.625 13.933594 11.792969 C 12.5625 13.234375 10.976562 14.410156 9.171875 15.316406 C 7.84375 15.851562 6.464844 16.027344 5.035156 15.847656 C 3.730469 15.675781 2.625 15.132812 1.71875 14.21875 C 1.078125 13.171875 0.59375 12.0625 0.273438 10.882812 C 0.277344 10.8125 0.300781 10.761719 0.351562 10.730469 Z M 0.351562 10.730469 "/>
    </g>
  </defs>
  <g id="surface1">
    <path
      style=" stroke:none;fill-rule:evenodd;fill:rgb(99.215686%,99.215686%,99.215686%);fill-opacity:1;"
      d="M 13.933594 11.792969 C 12.980469 12.625 11.992188 13.421875 10.964844 14.179688 C 8.699219 15.816406 6.226562 16.195312 3.550781 15.316406 C 3 15.070312 2.492188 14.753906 2.027344 14.371094 C 1.664062 13.964844 1.378906 13.511719 1.171875 13.003906 C 0.832031 12.265625 0.558594 11.507812 0.351562 10.730469 C 0.371094 10.632812 0.34375 10.554688 0.273438 10.503906 C 0.0507812 7.582031 0.6875 4.851562 2.183594 2.3125 C 2.695312 1.640625 3.355469 1.175781 4.175781 0.910156 C 5.503906 0.402344 6.882812 0.175781 8.3125 0.226562 C 9.257812 0.511719 10.222656 0.738281 11.199219 0.910156 C 11.628906 1.082031 12.019531 1.308594 12.371094 1.59375 C 13.578125 2.765625 14.605469 4.066406 15.453125 5.496094 C 15.675781 5.941406 15.765625 6.410156 15.726562 6.902344 C 15.65625 7.753906 15.539062 8.597656 15.375 9.441406 C 15.09375 10.34375 14.613281 11.128906 13.933594 11.792969 Z M 13.933594 11.792969 "/>
    <use xlink:href="#surface5" mask="url(#mask0)"/>
    <path
      style=" stroke:none;fill-rule:evenodd;fill:rgb(20.784314%,20.784314%,20.784314%);fill-opacity:1;"
      d="M 9.953125 5.195312 C 10.035156 5.203125 10.089844 5.253906 10.105469 5.347656 C 10.082031 5.398438 10.054688 5.445312 10.027344 5.496094 C 9.957031 5.40625 9.929688 5.304688 9.953125 5.195312 Z M 9.953125 5.195312 "/>
    <use xlink:href="#surface8" mask="url(#mask1)"/>
    <path
      style=" stroke:none;fill-rule:evenodd;fill:rgb(12.54902%,12.54902%,12.54902%);fill-opacity:1;"
      d="M 3.628906 6.257812 C 3.75 6.28125 3.800781 6.355469 3.785156 6.484375 C 3.570312 6.492188 3.519531 6.414062 3.628906 6.257812 Z M 3.628906 6.257812 "/>
    <use xlink:href="#surface11" mask="url(#mask2)"/>
    <path
      style=" stroke:none;fill-rule:evenodd;fill:rgb(14.901961%,14.901961%,14.901961%);fill-opacity:1;"
      d="M 3.941406 12.625 C 6.460938 13.050781 8.527344 12.316406 10.144531 10.425781 C 10.394531 9.84375 10.472656 9.234375 10.378906 8.605469 C 10.238281 8.5625 10.09375 8.511719 9.953125 8.453125 C 10.167969 8.34375 10.363281 8.371094 10.535156 8.53125 C 10.742188 9.789062 10.3125 10.785156 9.25 11.527344 C 7.777344 12.640625 6.113281 13.070312 4.253906 12.816406 C 4.113281 12.800781 4.007812 12.738281 3.941406 12.625 Z M 3.941406 12.625 "/>
    <path
      style=" stroke:none;fill-rule:evenodd;fill:rgb(16.470588%,16.470588%,16.470588%);fill-opacity:1;"
      d="M 3.941406 12.625 C 3.730469 12.59375 3.5625 12.492188 3.433594 12.324219 C 2.84375 11.53125 2.582031 10.648438 2.652344 9.667969 C 2.730469 9.53125 2.820312 9.40625 2.925781 9.289062 C 2.5625 10.578125 2.902344 11.691406 3.941406 12.625 Z M 3.941406 12.625 "/>
    <use xlink:href="#surface14" mask="url(#mask3)"/>
  </g>
</svg>
