<?xml version="1.0" encoding="UTF-8"?>
<!DOCTYPE svg PUBLIC "-//W3C//DTD SVG 1.1//EN" "http://www.w3.org/Graphics/SVG/1.1/DTD/svg11.dtd">
<svg xmlns="http://www.w3.org/2000/svg" version="1.1" width="205px" height="211px" style="shape-rendering:geometricPrecision; text-rendering:geometricPrecision; image-rendering:optimizeQuality; fill-rule:evenodd; clip-rule:evenodd" xmlns:xlink="http://www.w3.org/1999/xlink">
<g><path style="opacity:1" fill="#fdfdfd" d="M 178.5,155.5 C 166.334,166.49 153.667,176.99 140.5,187C 111.466,208.561 79.7994,213.561 45.5,202C 38.4392,198.719 31.9392,194.552 26,189.5C 21.3295,184.168 17.6628,178.168 15,171.5C 10.6358,161.778 7.13581,151.778 4.5,141.5C 4.73731,140.209 4.40397,139.209 3.5,138.5C 0.630697,99.9787 8.79736,63.9787 28,30.5C 34.5147,21.6597 43.0147,15.493 53.5,12C 70.5409,5.32812 88.2076,2.32812 106.5,3C 118.623,6.75901 130.957,9.75901 143.5,12C 148.997,14.2454 153.997,17.2454 158.5,21C 173.965,36.4575 187.132,53.6242 198,72.5C 200.834,78.351 202.001,84.5177 201.5,91C 200.616,102.24 199.116,113.407 197,124.5C 193.379,136.419 187.212,146.752 178.5,155.5 Z"/></g>
<g><path style="opacity:0.902" fill="#1f2326" d="M 178.5,155.5 C 187.212,146.752 193.379,136.419 197,124.5C 199.116,113.407 200.616,102.24 201.5,91C 202.001,84.5177 200.834,78.351 198,72.5C 187.132,53.6242 173.965,36.4575 158.5,21C 153.997,17.2454 148.997,14.2454 143.5,12C 130.957,9.75901 118.623,6.75901 106.5,3C 88.2076,2.32812 70.5409,5.32812 53.5,12C 43.0147,15.493 34.5147,21.6597 28,30.5C 8.79736,63.9787 0.630697,99.9787 3.5,138.5C 3.63101,139.239 3.46434,139.906 3,140.5C -0.132253,126.065 -0.29892,111.565 2.5,97C 2.48572,95.6153 2.15239,94.4486 1.5,93.5C 1.32842,92.5084 1.66175,91.8417 2.5,91.5C 2.81001,92.7383 3.31001,92.7383 4,91.5C 7.59343,71.4539 13.9268,52.4539 23,34.5C 26.7538,28.7419 31.2538,23.5752 36.5,19C 41.3968,16.3922 46.0635,13.5589 50.5,10.5C 54.2663,8.4612 58.2663,6.79453 62.5,5.5C 63.0968,6.13863 63.9302,6.47196 65,6.5C 80.4534,1.00587 96.2867,-0.494131 112.5,2C 126.692,4.73083 140.358,9.06416 153.5,15C 170.912,30.7402 185.745,48.5735 198,68.5C 204.232,83.7729 205.232,99.4396 201,115.5C 199.24,127.795 194.573,138.795 187,148.5C 184.564,151.447 181.731,153.78 178.5,155.5 Z"/></g>
<g><path style="opacity:1" fill="#353535" d="M 127.5,68.5 C 128.586,68.62 129.253,69.2867 129.5,70.5C 129.167,71.1667 128.833,71.8333 128.5,72.5C 127.571,71.3112 127.238,69.9778 127.5,68.5 Z"/></g>
<g><path style="opacity:0.063" fill="#a4abb4" d="M 50.5,10.5 C 46.0635,13.5589 41.3968,16.3922 36.5,19C 31.2538,23.5752 26.7538,28.7419 23,34.5C 13.9268,52.4539 7.59343,71.4539 4,91.5C 3.31001,92.7383 2.81001,92.7383 2.5,91.5C 6.04221,70.3733 12.8755,50.3733 23,31.5C 29.7839,21.1963 38.9506,14.1963 50.5,10.5 Z"/></g>
<g><path style="opacity:1" fill="#202020" d="M 46.5,82.5 C 48.0481,82.8212 48.7148,83.8212 48.5,85.5C 45.7524,85.5983 45.0857,84.5983 46.5,82.5 Z"/></g>
<g><path style="opacity:0.043" fill="#9faeb9" d="M 87.5,-0.5 C 94.1667,-0.5 100.833,-0.5 107.5,-0.5C 121.715,2.0566 135.715,5.88994 149.5,11C 158.916,17.4131 167.416,24.9131 175,33.5C 184.07,44.6384 192.403,56.3051 200,68.5C 201.428,72.307 202.928,75.9736 204.5,79.5C 204.5,89.5 204.5,99.5 204.5,109.5C 202.547,123.182 197.714,135.849 190,147.5C 169.658,170.193 146.158,188.693 119.5,203C 112.17,205.832 104.836,208.332 97.5,210.5C 85.5,210.5 73.5,210.5 61.5,210.5C 44.8157,207.072 30.649,199.072 19,186.5C 10.7845,170.753 4.28447,154.419 -0.5,137.5C -0.5,125.5 -0.5,113.5 -0.5,101.5C 0.531006,99.0392 1.19767,96.3725 1.5,93.5C 2.15239,94.4486 2.48572,95.6153 2.5,97C -0.29892,111.565 -0.132253,126.065 3,140.5C 3.46434,139.906 3.63101,139.239 3.5,138.5C 4.40397,139.209 4.73731,140.209 4.5,141.5C 3.87605,141.917 3.54272,142.584 3.5,143.5C 7.62878,159.061 13.7954,173.728 22,187.5C 33.6296,199.565 47.7963,206.732 64.5,209C 82.8455,211.386 100.512,209.052 117.5,202C 140.625,190.026 160.959,174.526 178.5,155.5C 181.731,153.78 184.564,151.447 187,148.5C 194.573,138.795 199.24,127.795 201,115.5C 205.232,99.4396 204.232,83.7729 198,68.5C 185.745,48.5735 170.912,30.7402 153.5,15C 140.358,9.06416 126.692,4.73083 112.5,2C 96.2867,-0.494131 80.4534,1.00587 65,6.5C 63.9302,6.47196 63.0968,6.13863 62.5,5.5C 70.9391,3.45446 79.2724,1.45446 87.5,-0.5 Z"/></g>
<g><path style="opacity:1" fill="#262626" d="M 50.5,166.5 C 82.7813,172.087 109.281,162.421 130,137.5C 133.171,129.793 134.171,121.793 133,113.5C 131.175,112.897 129.341,112.23 127.5,111.5C 130.282,110.048 132.782,110.381 135,112.5C 137.621,129.088 132.121,142.254 118.5,152C 99.6364,166.717 78.3031,172.383 54.5,169C 52.6803,168.8 51.347,167.966 50.5,166.5 Z"/></g>
<g><path style="opacity:1" fill="#2a2a2a" d="M 50.5,166.5 C 47.8045,166.067 45.6379,164.734 44,162.5C 36.4135,152.071 33.0801,140.404 34,127.5C 34.972,125.695 36.1387,124.028 37.5,122.5C 32.83,139.519 37.1634,154.186 50.5,166.5 Z"/></g>
<g><path style="opacity:0.788" fill="#23292e" d="M 4.5,141.5 C 7.13581,151.778 10.6358,161.778 15,171.5C 17.6628,178.168 21.3295,184.168 26,189.5C 31.9392,194.552 38.4392,198.719 45.5,202C 79.7994,213.561 111.466,208.561 140.5,187C 153.667,176.99 166.334,166.49 178.5,155.5C 160.959,174.526 140.625,190.026 117.5,202C 100.512,209.052 82.8455,211.386 64.5,209C 47.7963,206.732 33.6296,199.565 22,187.5C 13.7954,173.728 7.62878,159.061 3.5,143.5C 3.54272,142.584 3.87605,141.917 4.5,141.5 Z"/></g>
</svg>
