<?xml version="1.0" encoding="UTF-8"?>
<!DOCTYPE svg PUBLIC "-//W3C//DTD SVG 1.1//EN" "http://www.w3.org/Graphics/SVG/1.1/DTD/svg11.dtd">
<svg xmlns="http://www.w3.org/2000/svg" version="1.1" width="356px" height="298px" style="shape-rendering:geometricPrecision; text-rendering:geometricPrecision; image-rendering:optimizeQuality; fill-rule:evenodd; clip-rule:evenodd" xmlns:xlink="http://www.w3.org/1999/xlink">
<g><path style="opacity:1" fill="#aabfd0" d="M -0.5,-0.5 C 118.167,-0.5 236.833,-0.5 355.5,-0.5C 355.5,98.8333 355.5,198.167 355.5,297.5C 236.833,297.5 118.167,297.5 -0.5,297.5C -0.5,198.167 -0.5,98.8333 -0.5,-0.5 Z"/></g>
<g><path style="opacity:1" fill="#202429" d="M 315.5,196.5 C 297.983,215.495 277.65,230.995 254.5,243C 223.811,256.178 194.478,253.844 166.5,236C 162.631,232.466 159.131,228.633 156,224.5C 145.154,204.3 138.987,182.8 137.5,160C 138.951,128.073 147.451,98.2399 163,70.5C 169.819,62.0081 178.319,55.8415 188.5,52C 205.871,45.0585 223.871,41.7252 242.5,42C 257.189,44.4028 271.522,48.0695 285.5,53C 294.221,58.7145 302.054,65.5478 309,73.5C 318.441,84.9411 327.108,96.9411 335,109.5C 340.01,119.982 341.676,130.982 340,142.5C 339.457,163.402 331.957,181.235 317.5,196C 316.906,196.464 316.239,196.631 315.5,196.5 Z"/></g>
<g><path style="opacity:1" fill="#fdfdfd" d="M 315.5,196.5 C 301.483,209.026 286.816,220.859 271.5,232C 243.634,249.806 213.968,253.473 182.5,243C 171.901,238.73 163.401,231.896 157,222.5C 146.787,203.703 140.954,183.703 139.5,162.5C 140.553,132.622 147.719,104.289 161,77.5C 168.08,66.0928 177.913,57.9262 190.5,53C 209.53,45.4965 229.196,42.8298 249.5,45C 259.59,48.5521 269.923,51.2188 280.5,53C 292.425,58.5869 302.259,66.7536 310,77.5C 318.826,89.1511 327.16,101.151 335,113.5C 338.338,122.55 339.338,131.883 338,141.5C 337.594,162.917 330.094,181.25 315.5,196.5 Z"/></g>
<g><path style="opacity:1" fill="#373737" d="M 264.5,109.5 C 265.586,109.62 266.253,110.287 266.5,111.5C 266.167,112.167 265.833,112.833 265.5,113.5C 264.571,112.311 264.238,110.978 264.5,109.5 Z"/></g>
<g><path style="opacity:1" fill="#212121" d="M 183.5,123.5 C 185.048,123.821 185.715,124.821 185.5,126.5C 182.752,126.598 182.086,125.598 183.5,123.5 Z"/></g>
<g><path style="opacity:1" fill="#2e2e2e" d="M 264.5,151.5 C 267.365,151.055 269.865,151.722 272,153.5C 274.474,166.784 270.974,178.118 261.5,187.5C 241.818,206.115 218.485,213.615 191.5,210C 182.859,206.598 177.026,200.432 174,191.5C 171.177,184.056 170.177,176.39 171,168.5C 171.972,166.695 173.139,165.028 174.5,163.5C 169.814,179.803 173.814,193.969 186.5,206C 219.088,213.446 245.922,204.28 267,178.5C 270.171,170.793 271.171,162.793 270,154.5C 267.674,154.12 265.841,153.12 264.5,151.5 Z"/></g>
</svg>

